# 3ds Max Wavefront OBJ Exporter v0.97b - (c)2007 guruware
# File Created: 27.03.2016 20:21:29

#
# object default002
#

v  549.599976 0.000000 559.200012
v  552.799988 0.000000 -0.000000
v  0.000000 0.000000 -0.000000
v  0.000000 0.000000 559.200012
# 4 vertices

vn 0.000000 1.000000 -0.000000
# 1 vertex normals

vt 0.994211 0.000000 0.000000
vt 1.000000 1.000000 0.000000
vt 0.000000 1.000000 0.000000
vt 0.000000 0.000000 0.000000
# 4 texture coords

g default002
f 1/1/1 2/2/1 3/3/1 
f 3/3/1 4/4/1 1/1/1 
# 2 faces

