# 3ds Max Wavefront OBJ Exporter v0.97b - (c)2007 guruware
# File Created: 27.03.2016 20:22:22

#
# object cbox_largebox_Mesh
#

v  423.000000 330.000000 247.000000
v  265.000000 330.000000 296.000000
v  314.000000 330.000000 456.000000
v  472.000000 330.000000 406.000000
v  423.000000 0.000000 247.000000
v  472.000000 0.000000 406.000000
v  314.000000 0.000000 456.000000
v  265.000000 0.000000 296.000000
# 8 vertices

vn 0.000000 1.000000 -0.000000
vn 0.955649 0.000000 -0.294508
vn 0.301709 0.000000 0.953400
vn -0.956166 0.000000 0.292826
vn -0.296209 0.000000 -0.955123
vn 0.000000 -1.000000 -0.000000
# 6 vertex normals

vt 0.755893 0.269196 0.000000
vt 0.516541 0.252177 0.000000
vt 0.532899 0.010000 0.000000
vt 0.772582 0.028431 0.000000
vt 0.010000 0.990000 0.000000
vt 0.010000 0.511316 0.000000
vt 0.240639 0.511316 0.000000
vt 0.240639 0.990000 0.000000
vt 0.264721 0.488684 0.000000
vt 0.264721 0.010000 0.000000
vt 0.493909 0.010000 0.000000
vt 0.493909 0.488684 0.000000
vt 0.010000 0.488684 0.000000
vt 0.010000 0.010000 0.000000
vt 0.242089 0.010000 0.000000
vt 0.242089 0.488684 0.000000
vt 0.264721 0.990000 0.000000
vt 0.264721 0.511316 0.000000
vt 0.493909 0.511316 0.000000
vt 0.493909 0.990000 0.000000
vt 0.516541 0.293304 0.000000
vt 0.756762 0.284284 0.000000
vt 0.763613 0.526916 0.000000
vt 0.523778 0.534538 0.000000
# 24 texture coords

g cbox_largebox_Mesh
f 1/1/1 2/2/1 3/3/1 
f 1/1/1 3/3/1 4/4/1 
f 5/5/2 1/6/2 4/7/2 
f 5/5/2 4/7/2 6/8/2 
f 6/9/3 4/10/3 3/11/3 
f 6/9/3 3/11/3 7/12/3 
f 7/13/4 3/14/4 2/15/4 
f 7/13/4 2/15/4 8/16/4 
f 8/17/5 2/18/5 1/19/5 
f 8/17/5 1/19/5 5/20/5 
f 6/21/6 7/22/6 8/23/6 
f 6/21/6 8/23/6 5/24/6 
# 12 faces

