# 3ds Max Wavefront OBJ Exporter v0.97b - (c)2007 guruware
# File Created: 27.03.2016 20:21:10

#
# object default004
#

v  556.000000 548.799988 -0.000000
v  552.799988 0.000000 -0.000000
v  549.599976 0.000000 559.200012
v  556.000000 548.799988 559.200012
# 4 vertices

vn -0.999958 0.008711 -0.002895
vn -0.999967 0.005831 -0.005722
vn -0.999957 0.008781 -0.002827
vn -0.999932 0.011661 -0.000000
# 4 vertex normals

vt 1.000000 1.000000 0.000000
vt 0.500000 1.000000 0.000000
vt 0.000000 0.000000 0.000000
vt 1.000000 0.000000 0.000000
# 4 texture coords

g default004
f 1/1/1 2/2/2 3/3/3 
f 3/3/3 4/4/4 1/1/1 
# 2 faces

